# xmcd
#
# Track frame offsets:
#	150
#	11618
#	28777
#	63504
#	73920
#	86148
#	99528
#	114383
#	122673
#	153486
#
# Disc length: 2164 seconds
#
# Revision: 1
# Processed by: cddbd v1.5.2PL0 Copyright (c) Steve Scherf et al.
# Submitted via: audiograbber 1.83.01
#
DISCID=8508720a
DTITLE=Giuseppe Pino - Black and Blues - 2005-CD3-My Babe
DYEAR=2005
DGENRE=Blues
TTITLE0=Muddy Waters - Goin' Home
TTITLE1=Albert King - As The Years Go Passing By
TTITLE2=Joe Turner - Piney Brown
TTITLE3=Willie Dixon - That's All I Want Baby
TTITLE4=Muddy Waters - Good Looking Woman
TTITLE5=Roy Milton and His Solid Senders - R.M.Blues
TTITLE6=Odetta - Oh, Papa
TTITLE7=Jimmy Witherspoon - My Baby
TTITLE8=Etta James - I'd Rather Go Blind
TTITLE9=Jimmy Witherspoon - Don't Come Back To Me (For Sympathy)
EXTD=YEAR: 2005
EXTT0=
EXTT1=
EXTT2=
EXTT3=
EXTT4=
EXTT5=
EXTT6=
EXTT7=
EXTT8=
EXTT9=
PLAYORDER=
